M48
; DRILL file {KiCad 9.0.3} date 2025-08-06T00:12:10+0700
; FORMAT={-:-/ absolute / metric / decimal}
; #@! TF.CreationDate,2025-08-06T00:12:10+07:00
; #@! TF.GenerationSoftware,Kicad,Pcbnew,9.0.3
; #@! TF.FileFunction,NonPlated,1,2,NPTH
FMAT,2
METRIC
; #@! TA.AperFunction,NonPlated,NPTH,ComponentDrill
T1C0.700
; #@! TA.AperFunction,NonPlated,NPTH,ComponentDrill
T2C0.800
%
G90
G05
T1
X160.02Y-81.055
X160.02Y-84.455
X160.655Y-72.39
X165.735Y-72.39
X170.815Y-93.345
X170.815Y-94.845
X196.215Y-86.995
X196.215Y-92.075
X208.28Y-87.63
X210.18Y-72.39
X210.18Y-74.93
X210.18Y-77.47
X210.18Y-80.01
X210.82Y-57.785
X212.616Y-59.581
X213.36Y-87.63
X214.412Y-57.785
X217.8Y-72.39
X217.8Y-74.93
X217.8Y-77.47
X217.805Y-86.36
X227.33Y-83.82
X227.33Y-85.32
X237.49Y-73.12
X237.49Y-75.12
X237.49Y-77.12
X238.76Y-92.075
T2
X217.8Y-80.01
X220.345Y-86.36
X237.49Y-71.12
X238.76Y-89.535
M30
