%TF.GenerationSoftware,KiCad,Pcbnew,9.0.3*%
%TF.CreationDate,2025-08-06T00:12:20+07:00*%
%TF.ProjectId,Ujikom,556a696b-6f6d-42e6-9b69-6361645f7063,rev?*%
%TF.SameCoordinates,Original*%
%TF.FileFunction,Copper,L2,Bot*%
%TF.FilePolarity,Positive*%
%FSLAX46Y46*%
G04 Gerber Fmt 4.6, Leading zero omitted, Abs format (unit mm)*
G04 Created by KiCad (PCBNEW 9.0.3) date 2025-08-06 00:12:20*
%MOMM*%
%LPD*%
G01*
G04 APERTURE LIST*
G04 Aperture macros list*
%AMRoundRect*
0 Rectangle with rounded corners*
0 $1 Rounding radius*
0 $2 $3 $4 $5 $6 $7 $8 $9 X,Y pos of 4 corners*
0 Add a 4 corners polygon primitive as box body*
4,1,4,$2,$3,$4,$5,$6,$7,$8,$9,$2,$3,0*
0 Add four circle primitives for the rounded corners*
1,1,$1+$1,$2,$3*
1,1,$1+$1,$4,$5*
1,1,$1+$1,$6,$7*
1,1,$1+$1,$8,$9*
0 Add four rect primitives between the rounded corners*
20,1,$1+$1,$2,$3,$4,$5,0*
20,1,$1+$1,$4,$5,$6,$7,0*
20,1,$1+$1,$6,$7,$8,$9,0*
20,1,$1+$1,$8,$9,$2,$3,0*%
G04 Aperture macros list end*
%TA.AperFunction,WasherPad*%
%ADD10RoundRect,0.250000X-0.550000X-0.550000X0.550000X-0.550000X0.550000X0.550000X-0.550000X0.550000X0*%
%TD*%
%TA.AperFunction,WasherPad*%
%ADD11C,1.400000*%
%TD*%
%TA.AperFunction,WasherPad*%
%ADD12RoundRect,0.250000X-0.550000X0.550000X-0.550000X-0.550000X0.550000X-0.550000X0.550000X0.550000X0*%
%TD*%
%TA.AperFunction,WasherPad*%
%ADD13RoundRect,0.250000X0.550000X0.550000X-0.550000X0.550000X-0.550000X-0.550000X0.550000X-0.550000X0*%
%TD*%
%TA.AperFunction,Conductor*%
%ADD14C,0.800000*%
%TD*%
G04 APERTURE END LIST*
D10*
%TO.P,J1,*%
%TO.N,*%
X237490000Y-71120000D03*
D11*
X237490000Y-73120000D03*
X237490000Y-75120000D03*
X237490000Y-77120000D03*
%TD*%
%TO.P,RV1,*%
%TO.N,*%
X210820000Y-57785000D03*
X212616051Y-59581051D03*
X214412102Y-57785000D03*
%TD*%
D12*
%TO.P,D1,*%
%TO.N,*%
X238760000Y-89535000D03*
D11*
X238760000Y-92075000D03*
%TD*%
D13*
%TO.P,U1,*%
%TO.N,*%
X217800000Y-80010000D03*
D11*
X217800000Y-77470000D03*
X217800000Y-74930000D03*
X217800000Y-72390000D03*
X210180000Y-72390000D03*
X210180000Y-74930000D03*
X210180000Y-77470000D03*
X210180000Y-80010000D03*
%TD*%
%TO.P,R2,*%
%TO.N,*%
X165735000Y-72390000D03*
X160655000Y-72390000D03*
%TD*%
%TO.P,R3,*%
%TO.N,*%
X208280000Y-87630000D03*
X213360000Y-87630000D03*
%TD*%
D13*
%TO.P,D2,*%
%TO.N,*%
X220345000Y-86360000D03*
D11*
X217805000Y-86360000D03*
%TD*%
%TO.P,R4,*%
%TO.N,*%
X160020000Y-84455000D03*
X160020000Y-81055000D03*
%TD*%
%TO.P,R1,*%
%TO.N,*%
X196215000Y-86995000D03*
X196215000Y-92075000D03*
%TD*%
%TO.P,C2,*%
%TO.N,*%
X227330000Y-85320000D03*
X227330000Y-83820000D03*
%TD*%
%TO.P,C1,*%
%TO.N,*%
X170815000Y-93345000D03*
X170815000Y-94845000D03*
%TD*%
D14*
%TO.N,GND*%
X212821108Y-86329000D02*
X212059000Y-87091108D01*
X238766000Y-72798594D02*
X238444594Y-73120000D01*
X238444594Y-73120000D02*
X237490000Y-73120000D01*
X233362500Y-89217500D02*
X233680000Y-89535000D01*
X212757554Y-88867446D02*
X213107608Y-89217500D01*
X218530000Y-73120000D02*
X217800000Y-72390000D01*
X177165000Y-90170000D02*
X211455000Y-90170000D01*
X211455000Y-90170000D02*
X212757554Y-88867446D01*
X214412102Y-57785000D02*
X226707000Y-57785000D01*
X161371000Y-82406000D02*
X161371000Y-91359000D01*
X161371000Y-91359000D02*
X161290000Y-91440000D01*
X212821108Y-77368892D02*
X212821108Y-86329000D01*
X161290000Y-91440000D02*
X164695000Y-94845000D01*
X160020000Y-81055000D02*
X161371000Y-82406000D01*
X164695000Y-94845000D02*
X170815000Y-94845000D01*
X233680000Y-89535000D02*
X238760000Y-89535000D01*
X226707000Y-57785000D02*
X238766000Y-69844000D01*
X213107608Y-89217500D02*
X233362500Y-89217500D01*
X227965000Y-83820000D02*
X233362500Y-89217500D01*
X172490000Y-94845000D02*
X177165000Y-90170000D01*
X170815000Y-94845000D02*
X172490000Y-94845000D01*
X217800000Y-72390000D02*
X212821108Y-77368892D01*
X227330000Y-83820000D02*
X227965000Y-83820000D01*
X212059000Y-87091108D02*
X212059000Y-88168892D01*
X212059000Y-88168892D02*
X212757554Y-88867446D01*
X238766000Y-69844000D02*
X238766000Y-72798594D01*
X237490000Y-73120000D02*
X218530000Y-73120000D01*
%TO.N,+5V*%
X196850000Y-87630000D02*
X196215000Y-86995000D01*
X210180000Y-85730000D02*
X210180000Y-80010000D01*
X196215000Y-86995000D02*
X177165000Y-86995000D01*
X165735000Y-72390000D02*
X165735000Y-88265000D01*
X211581000Y-76627686D02*
X211581000Y-78609000D01*
X208280000Y-87630000D02*
X210180000Y-85730000D01*
X210820000Y-57785000D02*
X210820000Y-64589314D01*
X237490000Y-71120000D02*
X237359000Y-70989000D01*
X237359000Y-70989000D02*
X217219686Y-70989000D01*
X177165000Y-86995000D02*
X170815000Y-93345000D01*
X217219686Y-70989000D02*
X211581000Y-76627686D01*
X210820000Y-64589314D02*
X217219686Y-70989000D01*
X208280000Y-87630000D02*
X196850000Y-87630000D01*
X165735000Y-88265000D02*
X170815000Y-93345000D01*
X211581000Y-78609000D02*
X210180000Y-80010000D01*
%TO.N,Net-(J1-Pin_4)*%
X168910000Y-102235000D02*
X160020000Y-93345000D01*
X218150000Y-77120000D02*
X217800000Y-77470000D01*
X217800000Y-77470000D02*
X225650000Y-85320000D01*
X225650000Y-85320000D02*
X227330000Y-85320000D01*
X240030000Y-102235000D02*
X168910000Y-102235000D01*
X160020000Y-84455000D02*
X158115000Y-82550000D01*
X237490000Y-77120000D02*
X239045000Y-77120000D01*
X157480000Y-82550000D02*
X157480000Y-75565000D01*
X239045000Y-77120000D02*
X242304000Y-80379000D01*
X237490000Y-77120000D02*
X218150000Y-77120000D01*
X160020000Y-93345000D02*
X160020000Y-84455000D01*
X242304000Y-99961000D02*
X240030000Y-102235000D01*
X158115000Y-82550000D02*
X157480000Y-82550000D01*
X157480000Y-75565000D02*
X160655000Y-72390000D01*
X242304000Y-80379000D02*
X242304000Y-99961000D01*
%TO.N,Net-(D1-A)*%
X196215000Y-92075000D02*
X238760000Y-92075000D01*
%TO.N,Net-(D2-K)*%
X217800000Y-83815000D02*
X220345000Y-86360000D01*
X217800000Y-80010000D02*
X217800000Y-83815000D01*
%TO.N,Net-(D2-A)*%
X217805000Y-86360000D02*
X214630000Y-86360000D01*
X214630000Y-86360000D02*
X213360000Y-87630000D01*
%TO.N,Net-(J1-Pin_3)*%
X238444594Y-75120000D02*
X237490000Y-75120000D01*
X239767000Y-73797594D02*
X238444594Y-75120000D01*
X237490000Y-75120000D02*
X217990000Y-75120000D01*
X213902205Y-56554000D02*
X226891628Y-56554000D01*
X212616051Y-57840154D02*
X213902205Y-56554000D01*
X239767000Y-69429372D02*
X239767000Y-73797594D01*
X212616051Y-59581051D02*
X212616051Y-57840154D01*
X217990000Y-75120000D02*
X217800000Y-74930000D01*
X226891628Y-56554000D02*
X239767000Y-69429372D01*
%TD*%
%TA.AperFunction,Conductor*%
%TO.N,GND*%
G36*
X242647539Y-55130185D02*
G01*
X242693294Y-55182989D01*
X242704500Y-55234500D01*
X242704500Y-79206637D01*
X242684815Y-79273676D01*
X242632011Y-79319431D01*
X242562853Y-79329375D01*
X242499297Y-79300350D01*
X242492819Y-79294318D01*
X239619038Y-76420537D01*
X239597962Y-76406454D01*
X239535950Y-76365020D01*
X239471547Y-76321987D01*
X239389606Y-76288046D01*
X239384311Y-76285853D01*
X239384306Y-76285850D01*
X239307666Y-76254105D01*
X239307658Y-76254103D01*
X239133696Y-76219500D01*
X239133692Y-76219500D01*
X239133691Y-76219500D01*
X238766677Y-76219500D01*
X238755865Y-76216325D01*
X238744663Y-76217530D01*
X238722941Y-76206657D01*
X238699638Y-76199815D01*
X238692260Y-76191301D01*
X238682183Y-76186257D01*
X238669786Y-76165364D01*
X238653883Y-76147011D01*
X238652279Y-76135859D01*
X238646529Y-76126168D01*
X238647395Y-76101893D01*
X238643939Y-76077853D01*
X238648619Y-76067603D01*
X238649022Y-76056343D01*
X238662873Y-76036392D01*
X238672964Y-76014297D01*
X238683477Y-76006715D01*
X238688869Y-75998950D01*
X238719222Y-75980939D01*
X238796186Y-75949060D01*
X238871141Y-75918013D01*
X238959553Y-75858936D01*
X239018630Y-75819464D01*
X240466464Y-74371629D01*
X240499634Y-74321987D01*
X240565013Y-74224141D01*
X240603184Y-74131988D01*
X240632895Y-74060260D01*
X240667500Y-73886285D01*
X240667500Y-73708902D01*
X240667500Y-69340681D01*
X240632895Y-69166706D01*
X240567339Y-69008443D01*
X240565695Y-69003846D01*
X240466465Y-68855338D01*
X240466464Y-68855337D01*
X240341035Y-68729908D01*
X227465664Y-55854536D01*
X227465663Y-55854535D01*
X227465658Y-55854531D01*
X227411250Y-55818178D01*
X227411244Y-55818175D01*
X227406587Y-55815063D01*
X227318175Y-55755987D01*
X227236234Y-55722046D01*
X227154294Y-55688105D01*
X227154286Y-55688103D01*
X226980324Y-55653500D01*
X226980320Y-55653500D01*
X226980319Y-55653500D01*
X213813514Y-55653500D01*
X213813511Y-55653500D01*
X213639546Y-55688103D01*
X213639537Y-55688106D01*
X213475664Y-55755983D01*
X213475651Y-55755990D01*
X213328171Y-55854534D01*
X213328169Y-55854537D01*
X212025227Y-57157476D01*
X211963904Y-57190961D01*
X211894212Y-57185977D01*
X211838279Y-57144105D01*
X211837228Y-57142681D01*
X211802513Y-57094901D01*
X211735690Y-57002927D01*
X211602073Y-56869310D01*
X211449199Y-56758240D01*
X211280836Y-56672454D01*
X211101118Y-56614059D01*
X210914486Y-56584500D01*
X210914481Y-56584500D01*
X210725519Y-56584500D01*
X210725514Y-56584500D01*
X210538881Y-56614059D01*
X210359163Y-56672454D01*
X210190800Y-56758240D01*
X210103579Y-56821610D01*
X210037927Y-56869310D01*
X210037925Y-56869312D01*
X210037924Y-56869312D01*
X209904312Y-57002924D01*
X209904312Y-57002925D01*
X209904310Y-57002927D01*
X209856610Y-57068579D01*
X209793240Y-57155800D01*
X209707454Y-57324163D01*
X209649059Y-57503881D01*
X209619500Y-57690513D01*
X209619500Y-57879486D01*
X209649059Y-58066118D01*
X209707454Y-58245836D01*
X209793240Y-58414199D01*
X209895819Y-58555386D01*
X209919298Y-58621189D01*
X209919500Y-58628269D01*
X209919500Y-64678010D01*
X209954103Y-64851972D01*
X209954105Y-64851980D01*
X209985526Y-64927838D01*
X209985529Y-64927843D01*
X209988046Y-64933920D01*
X210021987Y-65015861D01*
X210081063Y-65104273D01*
X210084169Y-65108921D01*
X210084172Y-65108927D01*
X210120534Y-65163348D01*
X215858504Y-70901318D01*
X215891989Y-70962641D01*
X215887005Y-71032333D01*
X215858504Y-71076680D01*
X211536570Y-75398614D01*
X211475247Y-75432099D01*
X211405555Y-75427115D01*
X211349622Y-75385243D01*
X211325205Y-75319779D01*
X211330959Y-75272613D01*
X211350938Y-75211125D01*
X211350938Y-75211123D01*
X211350940Y-75211118D01*
X211376452Y-75050040D01*
X211380500Y-75024486D01*
X211380500Y-74835513D01*
X211350940Y-74648881D01*
X211292545Y-74469163D01*
X211219941Y-74326670D01*
X211206760Y-74300801D01*
X211095690Y-74147927D01*
X210962073Y-74014310D01*
X210809199Y-73903240D01*
X210775923Y-73886285D01*
X210640836Y-73817454D01*
X210566472Y-73793291D01*
X210519195Y-73777930D01*
X210461521Y-73738493D01*
X210434323Y-73674134D01*
X210446238Y-73605288D01*
X210493482Y-73553812D01*
X210519194Y-73542069D01*
X210640832Y-73502547D01*
X210809199Y-73416760D01*
X210962073Y-73305690D01*
X211095690Y-73172073D01*
X211206760Y-73019199D01*
X211292547Y-72850832D01*
X211350940Y-72671118D01*
X211352833Y-72659168D01*
X211380500Y-72484486D01*
X211380500Y-72295513D01*
X211350940Y-72108881D01*
X211312096Y-71989334D01*
X211292547Y-71929168D01*
X211292545Y-71929165D01*
X211292545Y-71929163D01*
X211206759Y-71760800D01*
X211095690Y-71607927D01*
X210962073Y-71474310D01*
X210809199Y-71363240D01*
X210640836Y-71277454D01*
X210461118Y-71219059D01*
X210274486Y-71189500D01*
X210274481Y-71189500D01*
X210085519Y-71189500D01*
X210085514Y-71189500D01*
X209898881Y-71219059D01*
X209719163Y-71277454D01*
X209550800Y-71363240D01*
X209463579Y-71426610D01*
X209397927Y-71474310D01*
X209397925Y-71474312D01*
X209397924Y-71474312D01*
X209264312Y-71607924D01*
X209264312Y-71607925D01*
X209264310Y-71607927D01*
X209216610Y-71673579D01*
X209153240Y-71760800D01*
X209067454Y-71929163D01*
X209009059Y-72108881D01*
X208979500Y-72295513D01*
X208979500Y-72484486D01*
X209009059Y-72671118D01*
X209067454Y-72850836D01*
X209125999Y-72965736D01*
X209153240Y-73019199D01*
X209264310Y-73172073D01*
X209397927Y-73305690D01*
X209550801Y-73416760D01*
X209630347Y-73457290D01*
X209719163Y-73502545D01*
X209719165Y-73502545D01*
X209719168Y-73502547D01*
X209808734Y-73531649D01*
X209840803Y-73542069D01*
X209898478Y-73581507D01*
X209925676Y-73645866D01*
X209913761Y-73714712D01*
X209866516Y-73766188D01*
X209840803Y-73777931D01*
X209719163Y-73817454D01*
X209550800Y-73903240D01*
X209463579Y-73966610D01*
X209397927Y-74014310D01*
X209397925Y-74014312D01*
X209397924Y-74014312D01*
X209264312Y-74147924D01*
X209264312Y-74147925D01*
X209264310Y-74147927D01*
X209264306Y-74147933D01*
X209153240Y-74300800D01*
X209067454Y-74469163D01*
X209009059Y-74648881D01*
X208979500Y-74835513D01*
X208979500Y-75024486D01*
X209009059Y-75211118D01*
X209067454Y-75390836D01*
X209153240Y-75559199D01*
X209264310Y-75712073D01*
X209397927Y-75845690D01*
X209550801Y-75956760D01*
X209598255Y-75980939D01*
X209719163Y-76042545D01*
X209719165Y-76042545D01*
X209719168Y-76042547D01*
X209796282Y-76067603D01*
X209840803Y-76082069D01*
X209898478Y-76121507D01*
X209925676Y-76185866D01*
X209913761Y-76254712D01*
X209866516Y-76306188D01*
X209840803Y-76317931D01*
X209719163Y-76357454D01*
X209550800Y-76443240D01*
X209463579Y-76506610D01*
X209397927Y-76554310D01*
X209397925Y-76554312D01*
X209397924Y-76554312D01*
X209264312Y-76687924D01*
X209264312Y-76687925D01*
X209264310Y-76687927D01*
X209216610Y-76753579D01*
X209153240Y-76840800D01*
X209067454Y-77009163D01*
X209009059Y-77188881D01*
X208979500Y-77375513D01*
X208979500Y-77564486D01*
X209009059Y-77751118D01*
X209067454Y-77930836D01*
X209125743Y-78045233D01*
X209153240Y-78099199D01*
X209264310Y-78252073D01*
X209397927Y-78385690D01*
X209550801Y-78496760D01*
X209597017Y-78520308D01*
X209719163Y-78582545D01*
X209719165Y-78582545D01*
X209719168Y-78582547D01*
X209808734Y-78611649D01*
X209840803Y-78622069D01*
X209898478Y-78661507D01*
X209925676Y-78725866D01*
X209913761Y-78794712D01*
X209866516Y-78846188D01*
X209840803Y-78857931D01*
X209719163Y-78897454D01*
X209550800Y-78983240D01*
X209478807Y-79035547D01*
X209397927Y-79094310D01*
X209397925Y-79094312D01*
X209397924Y-79094312D01*
X209264312Y-79227924D01*
X209264312Y-79227925D01*
X209264310Y-79227927D01*
X209231071Y-79273676D01*
X209153240Y-79380800D01*
X209067454Y-79549163D01*
X209009059Y-79728881D01*
X208979500Y-79915513D01*
X208979500Y-80104486D01*
X209009059Y-80291118D01*
X209067454Y-80470836D01*
X209153240Y-80639199D01*
X209255819Y-80780386D01*
X209279298Y-80846189D01*
X209279500Y-80853269D01*
X209279500Y-85305638D01*
X209259815Y-85372677D01*
X209243181Y-85393319D01*
X208239532Y-86396967D01*
X208178209Y-86430452D01*
X208171249Y-86431759D01*
X207998881Y-86459059D01*
X207819163Y-86517454D01*
X207650800Y-86603240D01*
X207594950Y-86643818D01*
X207509614Y-86705818D01*
X207443810Y-86729298D01*
X207436730Y-86729500D01*
X197481105Y-86729500D01*
X197414066Y-86709815D01*
X197368311Y-86657011D01*
X197363178Y-86643828D01*
X197327547Y-86534168D01*
X197241760Y-86365801D01*
X197130690Y-86212927D01*
X196997073Y-86079310D01*
X196844199Y-85968240D01*
X196806829Y-85949199D01*
X196675836Y-85882454D01*
X196496118Y-85824059D01*
X196309486Y-85794500D01*
X196309481Y-85794500D01*
X196120519Y-85794500D01*
X196120514Y-85794500D01*
X195933881Y-85824059D01*
X195754163Y-85882454D01*
X195585800Y-85968240D01*
X195515296Y-86019465D01*
X195444614Y-86070818D01*
X195378810Y-86094298D01*
X195371730Y-86094500D01*
X177076303Y-86094500D01*
X176902341Y-86129103D01*
X176902329Y-86129106D01*
X176820392Y-86163045D01*
X176820393Y-86163046D01*
X176738455Y-86196985D01*
X176650040Y-86256063D01*
X176650039Y-86256064D01*
X176590961Y-86295537D01*
X170902680Y-91983818D01*
X170841357Y-92017303D01*
X170771665Y-92012319D01*
X170727318Y-91983818D01*
X166671819Y-87928319D01*
X166638334Y-87866996D01*
X166635500Y-87840638D01*
X166635500Y-73233269D01*
X166655185Y-73166230D01*
X166659160Y-73160413D01*
X166761760Y-73019199D01*
X166847547Y-72850832D01*
X166905940Y-72671118D01*
X166907833Y-72659168D01*
X166935500Y-72484486D01*
X166935500Y-72295513D01*
X166905940Y-72108881D01*
X166867096Y-71989334D01*
X166847547Y-71929168D01*
X166847545Y-71929165D01*
X166847545Y-71929163D01*
X166761759Y-71760800D01*
X166650690Y-71607927D01*
X166517073Y-71474310D01*
X166364199Y-71363240D01*
X166195836Y-71277454D01*
X166016118Y-71219059D01*
X165829486Y-71189500D01*
X165829481Y-71189500D01*
X165640519Y-71189500D01*
X165640514Y-71189500D01*
X165453881Y-71219059D01*
X165274163Y-71277454D01*
X165105800Y-71363240D01*
X165018579Y-71426610D01*
X164952927Y-71474310D01*
X164952925Y-71474312D01*
X164952924Y-71474312D01*
X164819312Y-71607924D01*
X164819312Y-71607925D01*
X164819310Y-71607927D01*
X164771610Y-71673579D01*
X164708240Y-71760800D01*
X164622454Y-71929163D01*
X164564059Y-72108881D01*
X164534500Y-72295513D01*
X164534500Y-72484486D01*
X164564059Y-72671118D01*
X164622454Y-72850836D01*
X164680999Y-72965736D01*
X164708240Y-73019199D01*
X164810819Y-73160386D01*
X164834298Y-73226189D01*
X164834500Y-73233269D01*
X164834500Y-88353696D01*
X164869103Y-88527658D01*
X164869105Y-88527666D01*
X164900526Y-88603524D01*
X164900529Y-88603529D01*
X164903046Y-88609606D01*
X164936987Y-88691547D01*
X164996063Y-88779959D01*
X164999169Y-88784607D01*
X164999172Y-88784613D01*
X165035534Y-88839034D01*
X169581967Y-93385467D01*
X169615452Y-93446790D01*
X169616759Y-93453750D01*
X169644059Y-93626118D01*
X169702454Y-93805836D01*
X169788242Y-93974203D01*
X169823052Y-94022115D01*
X169846532Y-94087921D01*
X169830706Y-94155975D01*
X169823052Y-94167885D01*
X169788242Y-94215796D01*
X169702454Y-94384163D01*
X169644059Y-94563881D01*
X169614500Y-94750513D01*
X169614500Y-94939486D01*
X169644059Y-95126118D01*
X169702454Y-95305836D01*
X169788240Y-95474199D01*
X169899310Y-95627073D01*
X170032927Y-95760690D01*
X170185801Y-95871760D01*
X170265347Y-95912290D01*
X170354163Y-95957545D01*
X170354165Y-95957545D01*
X170354168Y-95957547D01*
X170450497Y-95988846D01*
X170533881Y-96015940D01*
X170720514Y-96045500D01*
X170720519Y-96045500D01*
X170909486Y-96045500D01*
X171096118Y-96015940D01*
X171275832Y-95957547D01*
X171444199Y-95871760D01*
X171597073Y-95760690D01*
X171730690Y-95627073D01*
X171841760Y-95474199D01*
X171927547Y-95305832D01*
X171985940Y-95126118D01*
X172015500Y-94939486D01*
X172015500Y-94750513D01*
X171985940Y-94563881D01*
X171927545Y-94384163D01*
X171841757Y-94215796D01*
X171806948Y-94167886D01*
X171783467Y-94102080D01*
X171799292Y-94034026D01*
X171806948Y-94022114D01*
X171841757Y-93974203D01*
X171841756Y-93974203D01*
X171841760Y-93974199D01*
X171927547Y-93805832D01*
X171985940Y-93626118D01*
X172013240Y-93453750D01*
X172043169Y-93390616D01*
X172048014Y-93385485D01*
X173452986Y-91980513D01*
X195014500Y-91980513D01*
X195014500Y-92169486D01*
X195044059Y-92356118D01*
X195102454Y-92535836D01*
X195188240Y-92704199D01*
X195299310Y-92857073D01*
X195432927Y-92990690D01*
X195585801Y-93101760D01*
X195665347Y-93142290D01*
X195754163Y-93187545D01*
X195754165Y-93187545D01*
X195754168Y-93187547D01*
X195850497Y-93218846D01*
X195933881Y-93245940D01*
X196120514Y-93275500D01*
X196120519Y-93275500D01*
X196309486Y-93275500D01*
X196496118Y-93245940D01*
X196675832Y-93187547D01*
X196844199Y-93101760D01*
X196985385Y-92999181D01*
X197051190Y-92975702D01*
X197058270Y-92975500D01*
X237916730Y-92975500D01*
X237983769Y-92995185D01*
X237989602Y-92999172D01*
X238130801Y-93101760D01*
X238210347Y-93142290D01*
X238299163Y-93187545D01*
X238299165Y-93187545D01*
X238299168Y-93187547D01*
X238395497Y-93218846D01*
X238478881Y-93245940D01*
X238665514Y-93275500D01*
X238665519Y-93275500D01*
X238854486Y-93275500D01*
X239041118Y-93245940D01*
X239220832Y-93187547D01*
X239389199Y-93101760D01*
X239542073Y-92990690D01*
X239675690Y-92857073D01*
X239786760Y-92704199D01*
X239872547Y-92535832D01*
X239930940Y-92356118D01*
X239960500Y-92169486D01*
X239960500Y-91980513D01*
X239930940Y-91793881D01*
X239872545Y-91614163D01*
X239786759Y-91445800D01*
X239675690Y-91292927D01*
X239542073Y-91159310D01*
X239391363Y-91049812D01*
X239348699Y-90994483D01*
X239342720Y-90924869D01*
X239375326Y-90863074D01*
X239436165Y-90828717D01*
X239451634Y-90826139D01*
X239462797Y-90824999D01*
X239629334Y-90769814D01*
X239778656Y-90677712D01*
X239902712Y-90553656D01*
X239994814Y-90404334D01*
X240049999Y-90237797D01*
X240060500Y-90135009D01*
X240060499Y-88934992D01*
X240049999Y-88832203D01*
X239994814Y-88665666D01*
X239902712Y-88516344D01*
X239778656Y-88392288D01*
X239676803Y-88329465D01*
X239629336Y-88300187D01*
X239629331Y-88300185D01*
X239627862Y-88299698D01*
X239462797Y-88245001D01*
X239462795Y-88245000D01*
X239360010Y-88234500D01*
X238159998Y-88234500D01*
X238159981Y-88234501D01*
X238057203Y-88245000D01*
X238057200Y-88245001D01*
X237890668Y-88300185D01*
X237890663Y-88300187D01*
X237741342Y-88392289D01*
X237617289Y-88516342D01*
X237525187Y-88665663D01*
X237525186Y-88665666D01*
X237470001Y-88832203D01*
X237470001Y-88832204D01*
X237470000Y-88832204D01*
X237459500Y-88934983D01*
X237459500Y-90135001D01*
X237459501Y-90135018D01*
X237470000Y-90237796D01*
X237470001Y-90237799D01*
X237525185Y-90404331D01*
X237525186Y-90404334D01*
X237617288Y-90553656D01*
X237741344Y-90677712D01*
X237890666Y-90769814D01*
X238057203Y-90824999D01*
X238068349Y-90826137D01*
X238091923Y-90835755D01*
X238116722Y-90841522D01*
X238123727Y-90848730D01*
X238133038Y-90852529D01*
X238147673Y-90873369D01*
X238165417Y-90891627D01*
X238167413Y-90901479D01*
X238173192Y-90909708D01*
X238174236Y-90935151D01*
X238179293Y-90960105D01*
X238175645Y-90969473D01*
X238176058Y-90979519D01*
X238163182Y-91001485D01*
X238153945Y-91025214D01*
X238143093Y-91035759D01*
X238140727Y-91039798D01*
X238128635Y-91049812D01*
X237989617Y-91150817D01*
X237923810Y-91174298D01*
X237916730Y-91174500D01*
X197058270Y-91174500D01*
X196991231Y-91154815D01*
X196985397Y-91150827D01*
X196844199Y-91048240D01*
X196799008Y-91025214D01*
X196675836Y-90962454D01*
X196496118Y-90904059D01*
X196309486Y-90874500D01*
X196309481Y-90874500D01*
X196120519Y-90874500D01*
X196120514Y-90874500D01*
X195933881Y-90904059D01*
X195754163Y-90962454D01*
X195585800Y-91048240D01*
X195498579Y-91111610D01*
X195432927Y-91159310D01*
X195432925Y-91159312D01*
X195432924Y-91159312D01*
X195299312Y-91292924D01*
X195299312Y-91292925D01*
X195299310Y-91292927D01*
X195251610Y-91358579D01*
X195188240Y-91445800D01*
X195102454Y-91614163D01*
X195044059Y-91793881D01*
X195014500Y-91980513D01*
X173452986Y-91980513D01*
X177501681Y-87931819D01*
X177563004Y-87898334D01*
X177589362Y-87895500D01*
X195371730Y-87895500D01*
X195438769Y-87915185D01*
X195444602Y-87919172D01*
X195585801Y-88021760D01*
X195665347Y-88062290D01*
X195754163Y-88107545D01*
X195754165Y-88107545D01*
X195754168Y-88107547D01*
X195933882Y-88165940D01*
X196106249Y-88193240D01*
X196169384Y-88223169D01*
X196174516Y-88228015D01*
X196246686Y-88300185D01*
X196275966Y-88329465D01*
X196349208Y-88378404D01*
X196423453Y-88428013D01*
X196471452Y-88447895D01*
X196587334Y-88495895D01*
X196747021Y-88527658D01*
X196761304Y-88530499D01*
X196761308Y-88530500D01*
X196761309Y-88530500D01*
X207436730Y-88530500D01*
X207503769Y-88550185D01*
X207509602Y-88554172D01*
X207650801Y-88656760D01*
X207719075Y-88691547D01*
X207819163Y-88742545D01*
X207819165Y-88742545D01*
X207819168Y-88742547D01*
X207915497Y-88773846D01*
X207998881Y-88800940D01*
X208185514Y-88830500D01*
X208185519Y-88830500D01*
X208374486Y-88830500D01*
X208561118Y-88800940D01*
X208740832Y-88742547D01*
X208909199Y-88656760D01*
X209062073Y-88545690D01*
X209195690Y-88412073D01*
X209306760Y-88259199D01*
X209392547Y-88090832D01*
X209450940Y-87911118D01*
X209478240Y-87738749D01*
X209508169Y-87675615D01*
X209513014Y-87670484D01*
X210879464Y-86304035D01*
X210886853Y-86292975D01*
X210901331Y-86271310D01*
X210901331Y-86271309D01*
X210919457Y-86244182D01*
X210978013Y-86156547D01*
X211002540Y-86097334D01*
X211045895Y-85992666D01*
X211080500Y-85818692D01*
X211080500Y-85641308D01*
X211080500Y-80853269D01*
X211100185Y-80786230D01*
X211104160Y-80780413D01*
X211206760Y-80639199D01*
X211292547Y-80470832D01*
X211350940Y-80291118D01*
X211378240Y-80118751D01*
X211408169Y-80055616D01*
X211413014Y-80050485D01*
X212280464Y-79183036D01*
X212329599Y-79109500D01*
X212379013Y-79035547D01*
X212436213Y-78897453D01*
X212446895Y-78871666D01*
X212481500Y-78697692D01*
X212481500Y-78520308D01*
X212481500Y-77052047D01*
X212501185Y-76985008D01*
X212517814Y-76964371D01*
X216547835Y-72934349D01*
X216609156Y-72900866D01*
X216678848Y-72905850D01*
X216734781Y-72947722D01*
X216745998Y-72965736D01*
X216773238Y-73019196D01*
X216773240Y-73019199D01*
X216884310Y-73172073D01*
X217017927Y-73305690D01*
X217170801Y-73416760D01*
X217250347Y-73457290D01*
X217339163Y-73502545D01*
X217339165Y-73502545D01*
X217339168Y-73502547D01*
X217428734Y-73531649D01*
X217460803Y-73542069D01*
X217518478Y-73581507D01*
X217545676Y-73645866D01*
X217533761Y-73714712D01*
X217486516Y-73766188D01*
X217460803Y-73777931D01*
X217339163Y-73817454D01*
X217170800Y-73903240D01*
X217083579Y-73966610D01*
X217017927Y-74014310D01*
X217017925Y-74014312D01*
X217017924Y-74014312D01*
X216884312Y-74147924D01*
X216884312Y-74147925D01*
X216884310Y-74147927D01*
X216884306Y-74147933D01*
X216773240Y-74300800D01*
X216687454Y-74469163D01*
X216629059Y-74648881D01*
X216599500Y-74835513D01*
X216599500Y-75024486D01*
X216629059Y-75211118D01*
X216687454Y-75390836D01*
X216773240Y-75559199D01*
X216884310Y-75712073D01*
X217017927Y-75845690D01*
X217170801Y-75956760D01*
X217218255Y-75980939D01*
X217339163Y-76042545D01*
X217339165Y-76042545D01*
X217339168Y-76042547D01*
X217416282Y-76067603D01*
X217460803Y-76082069D01*
X217518478Y-76121507D01*
X217545676Y-76185866D01*
X217533761Y-76254712D01*
X217486516Y-76306188D01*
X217460803Y-76317931D01*
X217339163Y-76357454D01*
X217170800Y-76443240D01*
X217083579Y-76506610D01*
X217017927Y-76554310D01*
X217017925Y-76554312D01*
X217017924Y-76554312D01*
X216884312Y-76687924D01*
X216884312Y-76687925D01*
X216884310Y-76687927D01*
X216836610Y-76753579D01*
X216773240Y-76840800D01*
X216687454Y-77009163D01*
X216629059Y-77188881D01*
X216599500Y-77375513D01*
X216599500Y-77564486D01*
X216629059Y-77751118D01*
X216687454Y-77930836D01*
X216745743Y-78045233D01*
X216773240Y-78099199D01*
X216884310Y-78252073D01*
X217017927Y-78385690D01*
X217168635Y-78495186D01*
X217211300Y-78550516D01*
X217217279Y-78620130D01*
X217184673Y-78681925D01*
X217123834Y-78716282D01*
X217108352Y-78718862D01*
X217097202Y-78720001D01*
X217097200Y-78720001D01*
X216930668Y-78775185D01*
X216930663Y-78775187D01*
X216781342Y-78867289D01*
X216657289Y-78991342D01*
X216565187Y-79140663D01*
X216565186Y-79140666D01*
X216510001Y-79307203D01*
X216510001Y-79307204D01*
X216510000Y-79307204D01*
X216499500Y-79409983D01*
X216499500Y-80610001D01*
X216499501Y-80610018D01*
X216510000Y-80712796D01*
X216510001Y-80712799D01*
X216540011Y-80803362D01*
X216565186Y-80879334D01*
X216657288Y-81028656D01*
X216781344Y-81152712D01*
X216840596Y-81189258D01*
X216887321Y-81241204D01*
X216899500Y-81294797D01*
X216899500Y-83903696D01*
X216934103Y-84077659D01*
X216934106Y-84077670D01*
X216949730Y-84115387D01*
X216951434Y-84119500D01*
X217001987Y-84241547D01*
X217041392Y-84300520D01*
X217045692Y-84306956D01*
X217045696Y-84306963D01*
X217100532Y-84389031D01*
X217100538Y-84389039D01*
X217676973Y-84965473D01*
X217710458Y-85026796D01*
X217705474Y-85096487D01*
X217663603Y-85152421D01*
X217608691Y-85175627D01*
X217523880Y-85189060D01*
X217344163Y-85247454D01*
X217175800Y-85333240D01*
X217143098Y-85357000D01*
X217034614Y-85435818D01*
X216968810Y-85459298D01*
X216961730Y-85459500D01*
X214541303Y-85459500D01*
X214367341Y-85494103D01*
X214367329Y-85494106D01*
X214285392Y-85528045D01*
X214285393Y-85528046D01*
X214203455Y-85561985D01*
X214144890Y-85601118D01*
X214144889Y-85601119D01*
X214055961Y-85660537D01*
X214055960Y-85660538D01*
X213319532Y-86396967D01*
X213258209Y-86430452D01*
X213251249Y-86431759D01*
X213078881Y-86459059D01*
X212899163Y-86517454D01*
X212730800Y-86603240D01*
X212674950Y-86643818D01*
X212577927Y-86714310D01*
X212577925Y-86714312D01*
X212577924Y-86714312D01*
X212444312Y-86847924D01*
X212444312Y-86847925D01*
X212444310Y-86847927D01*
X212396610Y-86913579D01*
X212333240Y-87000800D01*
X212247454Y-87169163D01*
X212189059Y-87348881D01*
X212159500Y-87535513D01*
X212159500Y-87724486D01*
X212189059Y-87911118D01*
X212247454Y-88090836D01*
X212320655Y-88234500D01*
X212333240Y-88259199D01*
X212444310Y-88412073D01*
X212577927Y-88545690D01*
X212730801Y-88656760D01*
X212799075Y-88691547D01*
X212899163Y-88742545D01*
X212899165Y-88742545D01*
X212899168Y-88742547D01*
X212995497Y-88773846D01*
X213078881Y-88800940D01*
X213265514Y-88830500D01*
X213265519Y-88830500D01*
X213454486Y-88830500D01*
X213641118Y-88800940D01*
X213820832Y-88742547D01*
X213989199Y-88656760D01*
X214142073Y-88545690D01*
X214275690Y-88412073D01*
X214386760Y-88259199D01*
X214472547Y-88090832D01*
X214530940Y-87911118D01*
X214558240Y-87738750D01*
X214588169Y-87675616D01*
X214593014Y-87670485D01*
X214966681Y-87296819D01*
X215028004Y-87263334D01*
X215054362Y-87260500D01*
X216961730Y-87260500D01*
X217028769Y-87280185D01*
X217034602Y-87284172D01*
X217175801Y-87386760D01*
X217255347Y-87427290D01*
X217344163Y-87472545D01*
X217344165Y-87472545D01*
X217344168Y-87472547D01*
X217437000Y-87502710D01*
X217523881Y-87530940D01*
X217710514Y-87560500D01*
X217710519Y-87560500D01*
X217899486Y-87560500D01*
X218086118Y-87530940D01*
X218265832Y-87472547D01*
X218434199Y-87386760D01*
X218587073Y-87275690D01*
X218720690Y-87142073D01*
X218830186Y-86991364D01*
X218885516Y-86948699D01*
X218955129Y-86942720D01*
X219016924Y-86975326D01*
X219051282Y-87036165D01*
X219053862Y-87051647D01*
X219055001Y-87062797D01*
X219055001Y-87062799D01*
X219081271Y-87142075D01*
X219110186Y-87229334D01*
X219202288Y-87378656D01*
X219326344Y-87502712D01*
X219475666Y-87594814D01*
X219642203Y-87649999D01*
X219744991Y-87660500D01*
X220945008Y-87660499D01*
X221047797Y-87649999D01*
X221214334Y-87594814D01*
X221363656Y-87502712D01*
X221487712Y-87378656D01*
X221579814Y-87229334D01*
X221634999Y-87062797D01*
X221645500Y-86960009D01*
X221645499Y-85759992D01*
X221634999Y-85657203D01*
X221579814Y-85490666D01*
X221487712Y-85341344D01*
X221363656Y-85217288D01*
X221214334Y-85125186D01*
X221047797Y-85070001D01*
X221047795Y-85070000D01*
X220945016Y-85059500D01*
X220945009Y-85059500D01*
X220369361Y-85059500D01*
X220302322Y-85039815D01*
X220281680Y-85023181D01*
X218736819Y-83478319D01*
X218703334Y-83416996D01*
X218700500Y-83390638D01*
X218700500Y-81294797D01*
X218720185Y-81227758D01*
X218759403Y-81189258D01*
X218818656Y-81152712D01*
X218942712Y-81028656D01*
X219034814Y-80879334D01*
X219089999Y-80712797D01*
X219100500Y-80610009D01*
X219100499Y-80343359D01*
X219120183Y-80276322D01*
X219172987Y-80230567D01*
X219242146Y-80220623D01*
X219305701Y-80249648D01*
X219312180Y-80255680D01*
X222180535Y-83124034D01*
X224950536Y-85894035D01*
X225024741Y-85968240D01*
X225075966Y-86019465D01*
X225223446Y-86118009D01*
X225223459Y-86118016D01*
X225316476Y-86156544D01*
X225387334Y-86185894D01*
X225387336Y-86185894D01*
X225387341Y-86185896D01*
X225561304Y-86220499D01*
X225561307Y-86220500D01*
X225561309Y-86220500D01*
X226486730Y-86220500D01*
X226553769Y-86240185D01*
X226559602Y-86244172D01*
X226700801Y-86346760D01*
X226780347Y-86387290D01*
X226869163Y-86432545D01*
X226869165Y-86432545D01*
X226869168Y-86432547D01*
X226950763Y-86459059D01*
X227048881Y-86490940D01*
X227235514Y-86520500D01*
X227235519Y-86520500D01*
X227424486Y-86520500D01*
X227611118Y-86490940D01*
X227790832Y-86432547D01*
X227959199Y-86346760D01*
X228112073Y-86235690D01*
X228245690Y-86102073D01*
X228356760Y-85949199D01*
X228442547Y-85780832D01*
X228500940Y-85601118D01*
X228507138Y-85561985D01*
X228530500Y-85414486D01*
X228530500Y-85225513D01*
X228500940Y-85038881D01*
X228442545Y-84859163D01*
X228356757Y-84690796D01*
X228321948Y-84642886D01*
X228298467Y-84577080D01*
X228314292Y-84509026D01*
X228321948Y-84497114D01*
X228356757Y-84449203D01*
X228356756Y-84449203D01*
X228356760Y-84449199D01*
X228442547Y-84280832D01*
X228500940Y-84101118D01*
X228504654Y-84077666D01*
X228530500Y-83914486D01*
X228530500Y-83725513D01*
X228500940Y-83538881D01*
X228464990Y-83428240D01*
X228442547Y-83359168D01*
X228442545Y-83359165D01*
X228442545Y-83359163D01*
X228386649Y-83249461D01*
X228356760Y-83190801D01*
X228245690Y-83037927D01*
X228112073Y-82904310D01*
X227959199Y-82793240D01*
X227790836Y-82707454D01*
X227611118Y-82649059D01*
X227424486Y-82619500D01*
X227424481Y-82619500D01*
X227235519Y-82619500D01*
X227235514Y-82619500D01*
X227048881Y-82649059D01*
X226869163Y-82707454D01*
X226700800Y-82793240D01*
X226613579Y-82856610D01*
X226547927Y-82904310D01*
X226547925Y-82904312D01*
X226547924Y-82904312D01*
X226414312Y-83037924D01*
X226414312Y-83037925D01*
X226414310Y-83037927D01*
X226366610Y-83103579D01*
X226303240Y-83190800D01*
X226217454Y-83359163D01*
X226159059Y-83538881D01*
X226129500Y-83725513D01*
X226129500Y-83914486D01*
X226159059Y-84101118D01*
X226188439Y-84191538D01*
X226209769Y-84257183D01*
X226210572Y-84285302D01*
X226214576Y-84313147D01*
X226211556Y-84319758D01*
X226211764Y-84327022D01*
X226197239Y-84351108D01*
X226185551Y-84376703D01*
X226179436Y-84380632D01*
X226175684Y-84386855D01*
X226150440Y-84399267D01*
X226126773Y-84414477D01*
X226116503Y-84415953D01*
X226112984Y-84417684D01*
X226091838Y-84419500D01*
X226074361Y-84419500D01*
X226007322Y-84399815D01*
X225986680Y-84383181D01*
X219835681Y-78232181D01*
X219802196Y-78170858D01*
X219807180Y-78101166D01*
X219849052Y-78045233D01*
X219914516Y-78020816D01*
X219923362Y-78020500D01*
X236646730Y-78020500D01*
X236713769Y-78040185D01*
X236719602Y-78044172D01*
X236860801Y-78146760D01*
X236940347Y-78187290D01*
X237029163Y-78232545D01*
X237029165Y-78232545D01*
X237029168Y-78232547D01*
X237089266Y-78252074D01*
X237208881Y-78290940D01*
X237395514Y-78320500D01*
X237395519Y-78320500D01*
X237584486Y-78320500D01*
X237771118Y-78290940D01*
X237950832Y-78232547D01*
X238119199Y-78146760D01*
X238260385Y-78044181D01*
X238326190Y-78020702D01*
X238333270Y-78020500D01*
X238620638Y-78020500D01*
X238687677Y-78040185D01*
X238708319Y-78056819D01*
X241367181Y-80715681D01*
X241400666Y-80777004D01*
X241403500Y-80803362D01*
X241403500Y-99536638D01*
X241383815Y-99603677D01*
X241367181Y-99624319D01*
X239693319Y-101298181D01*
X239631996Y-101331666D01*
X239605638Y-101334500D01*
X169334361Y-101334500D01*
X169267322Y-101314815D01*
X169246680Y-101298181D01*
X160956819Y-93008319D01*
X160923334Y-92946996D01*
X160920500Y-92920638D01*
X160920500Y-85298269D01*
X160940185Y-85231230D01*
X160944160Y-85225413D01*
X161046760Y-85084199D01*
X161132547Y-84915832D01*
X161190940Y-84736118D01*
X161220500Y-84549486D01*
X161220500Y-84360513D01*
X161190940Y-84173881D01*
X161132545Y-83994163D01*
X161046759Y-83825800D01*
X160935690Y-83672927D01*
X160802073Y-83539310D01*
X160649199Y-83428240D01*
X160480836Y-83342454D01*
X160301118Y-83284059D01*
X160128750Y-83256759D01*
X160065615Y-83226830D01*
X160060467Y-83221967D01*
X158689035Y-81850535D01*
X158689030Y-81850531D01*
X158634618Y-81814175D01*
X158634610Y-81814170D01*
X158629959Y-81811063D01*
X158541547Y-81751987D01*
X158459606Y-81718046D01*
X158453519Y-81715524D01*
X158447741Y-81712377D01*
X158432703Y-81697369D01*
X158402633Y-81673130D01*
X158399759Y-81664491D01*
X158398286Y-81663021D01*
X158396400Y-81654394D01*
X158380578Y-81606833D01*
X158380500Y-81602425D01*
X158380500Y-80960513D01*
X158819500Y-80960513D01*
X158819500Y-81149486D01*
X158849059Y-81336118D01*
X158907454Y-81515836D01*
X158982449Y-81663021D01*
X158993240Y-81684199D01*
X159104310Y-81837073D01*
X159237927Y-81970690D01*
X159390801Y-82081760D01*
X159470347Y-82122290D01*
X159559163Y-82167545D01*
X159559165Y-82167545D01*
X159559168Y-82167547D01*
X159655497Y-82198846D01*
X159738881Y-82225940D01*
X159925514Y-82255500D01*
X159925519Y-82255500D01*
X160114486Y-82255500D01*
X160301118Y-82225940D01*
X160480832Y-82167547D01*
X160649199Y-82081760D01*
X160802073Y-81970690D01*
X160935690Y-81837073D01*
X161046760Y-81684199D01*
X161132547Y-81515832D01*
X161190940Y-81336118D01*
X161205973Y-81241204D01*
X161220500Y-81149486D01*
X161220500Y-80960513D01*
X161190940Y-80773881D01*
X161163846Y-80690497D01*
X161132547Y-80594168D01*
X161132545Y-80594165D01*
X161132545Y-80594163D01*
X161046759Y-80425800D01*
X160935690Y-80272927D01*
X160802073Y-80139310D01*
X160649199Y-80028240D01*
X160480836Y-79942454D01*
X160301118Y-79884059D01*
X160114486Y-79854500D01*
X160114481Y-79854500D01*
X159925519Y-79854500D01*
X159925514Y-79854500D01*
X159738881Y-79884059D01*
X159559163Y-79942454D01*
X159390800Y-80028240D01*
X159360208Y-80050467D01*
X159237927Y-80139310D01*
X159237925Y-80139312D01*
X159237924Y-80139312D01*
X159104312Y-80272924D01*
X159104312Y-80272925D01*
X159104310Y-80272927D01*
X159056610Y-80338579D01*
X158993240Y-80425800D01*
X158907454Y-80594163D01*
X158849059Y-80773881D01*
X158819500Y-80960513D01*
X158380500Y-80960513D01*
X158380500Y-75989362D01*
X158400185Y-75922323D01*
X158416819Y-75901681D01*
X159482987Y-74835513D01*
X160695469Y-73623030D01*
X160756790Y-73589547D01*
X160763751Y-73588240D01*
X160836485Y-73576719D01*
X160936118Y-73560940D01*
X161115832Y-73502547D01*
X161284199Y-73416760D01*
X161437073Y-73305690D01*
X161570690Y-73172073D01*
X161681760Y-73019199D01*
X161767547Y-72850832D01*
X161825940Y-72671118D01*
X161827833Y-72659168D01*
X161855500Y-72484486D01*
X161855500Y-72295513D01*
X161825940Y-72108881D01*
X161787096Y-71989334D01*
X161767547Y-71929168D01*
X161767545Y-71929165D01*
X161767545Y-71929163D01*
X161681759Y-71760800D01*
X161570690Y-71607927D01*
X161437073Y-71474310D01*
X161284199Y-71363240D01*
X161115836Y-71277454D01*
X160936118Y-71219059D01*
X160749486Y-71189500D01*
X160749481Y-71189500D01*
X160560519Y-71189500D01*
X160560514Y-71189500D01*
X160373881Y-71219059D01*
X160194163Y-71277454D01*
X160025800Y-71363240D01*
X159938579Y-71426610D01*
X159872927Y-71474310D01*
X159872925Y-71474312D01*
X159872924Y-71474312D01*
X159739312Y-71607924D01*
X159739312Y-71607925D01*
X159739310Y-71607927D01*
X159691610Y-71673579D01*
X159628240Y-71760800D01*
X159542454Y-71929163D01*
X159484059Y-72108881D01*
X159456759Y-72281249D01*
X159426830Y-72344384D01*
X159421967Y-72349532D01*
X156780538Y-74990960D01*
X156780537Y-74990961D01*
X156744063Y-75045549D01*
X156744059Y-75045555D01*
X156741063Y-75050040D01*
X156681987Y-75138453D01*
X156650496Y-75214481D01*
X156647903Y-75220738D01*
X156647901Y-75220744D01*
X156626416Y-75272613D01*
X156614105Y-75302334D01*
X156592586Y-75410520D01*
X156592586Y-75410521D01*
X156579500Y-75476307D01*
X156579500Y-82638695D01*
X156614103Y-82812658D01*
X156614106Y-82812667D01*
X156681983Y-82976540D01*
X156681990Y-82976553D01*
X156780535Y-83124034D01*
X156780538Y-83124038D01*
X156905961Y-83249461D01*
X156905965Y-83249464D01*
X157053446Y-83348009D01*
X157053459Y-83348016D01*
X157156360Y-83390638D01*
X157217334Y-83415894D01*
X157217336Y-83415894D01*
X157217341Y-83415896D01*
X157391304Y-83450499D01*
X157391307Y-83450500D01*
X157391309Y-83450500D01*
X157690638Y-83450500D01*
X157757677Y-83470185D01*
X157778319Y-83486819D01*
X158786967Y-84495467D01*
X158820452Y-84556790D01*
X158821759Y-84563750D01*
X158849059Y-84736118D01*
X158907454Y-84915836D01*
X158970149Y-85038881D01*
X158993240Y-85084199D01*
X159095819Y-85225386D01*
X159119298Y-85291189D01*
X159119500Y-85298269D01*
X159119500Y-93433696D01*
X159154103Y-93607658D01*
X159154105Y-93607666D01*
X159179759Y-93669601D01*
X159179764Y-93669611D01*
X159181607Y-93674060D01*
X159221987Y-93771547D01*
X159258051Y-93825520D01*
X159302678Y-93892310D01*
X159320537Y-93919038D01*
X159320538Y-93919039D01*
X168210536Y-102809035D01*
X168335965Y-102934464D01*
X168483453Y-103033013D01*
X168531452Y-103052895D01*
X168647334Y-103100895D01*
X168821304Y-103135499D01*
X168821308Y-103135500D01*
X168821309Y-103135500D01*
X240118693Y-103135500D01*
X240118694Y-103135499D01*
X240292666Y-103100895D01*
X240374606Y-103066953D01*
X240456547Y-103033013D01*
X240544959Y-102973936D01*
X240604036Y-102934464D01*
X242492819Y-101045679D01*
X242554142Y-101012195D01*
X242623834Y-101017179D01*
X242679767Y-101059051D01*
X242704184Y-101124515D01*
X242704500Y-101133361D01*
X242704500Y-103515500D01*
X242684815Y-103582539D01*
X242632011Y-103628294D01*
X242580500Y-103639500D01*
X156199500Y-103639500D01*
X156132461Y-103619815D01*
X156086706Y-103567011D01*
X156075500Y-103515500D01*
X156075500Y-55234500D01*
X156095185Y-55167461D01*
X156147989Y-55121706D01*
X156199500Y-55110500D01*
X242580500Y-55110500D01*
X242647539Y-55130185D01*
G37*
%TD.AperFunction*%
%TA.AperFunction,Conductor*%
G36*
X236199602Y-71909185D02*
G01*
X236245357Y-71961989D01*
X236250268Y-71974493D01*
X236255186Y-71989334D01*
X236329855Y-72110393D01*
X236347289Y-72138657D01*
X236471343Y-72262711D01*
X236477011Y-72267193D01*
X236475204Y-72269477D01*
X236513072Y-72311585D01*
X236524288Y-72380549D01*
X236501564Y-72438051D01*
X236463242Y-72490796D01*
X236377454Y-72659163D01*
X236319059Y-72838881D01*
X236289500Y-73025513D01*
X236289500Y-73214486D01*
X236319059Y-73401118D01*
X236377454Y-73580836D01*
X236445668Y-73714712D01*
X236463240Y-73749199D01*
X236574310Y-73902073D01*
X236574312Y-73902075D01*
X236680056Y-74007819D01*
X236713541Y-74069142D01*
X236708557Y-74138834D01*
X236666685Y-74194767D01*
X236601221Y-74219184D01*
X236592375Y-74219500D01*
X218830872Y-74219500D01*
X218763833Y-74199815D01*
X218730555Y-74168386D01*
X218715694Y-74147933D01*
X218715690Y-74147927D01*
X218582073Y-74014310D01*
X218429199Y-73903240D01*
X218395923Y-73886285D01*
X218260836Y-73817454D01*
X218186472Y-73793291D01*
X218139195Y-73777930D01*
X218081521Y-73738493D01*
X218054323Y-73674134D01*
X218066238Y-73605288D01*
X218113482Y-73553812D01*
X218139194Y-73542069D01*
X218260832Y-73502547D01*
X218429199Y-73416760D01*
X218582073Y-73305690D01*
X218715690Y-73172073D01*
X218826760Y-73019199D01*
X218912547Y-72850832D01*
X218970940Y-72671118D01*
X218972833Y-72659168D01*
X219000500Y-72484486D01*
X219000500Y-72295513D01*
X218970940Y-72108881D01*
X218952399Y-72051819D01*
X218950404Y-71981978D01*
X218986484Y-71922145D01*
X219049184Y-71891316D01*
X219070330Y-71889500D01*
X236132563Y-71889500D01*
X236199602Y-71909185D01*
G37*
%TD.AperFunction*%
%TA.AperFunction,Conductor*%
G36*
X238770495Y-72079304D02*
G01*
X238784236Y-72080098D01*
X238801909Y-72092953D01*
X238821952Y-72101662D01*
X238829606Y-72113100D01*
X238840738Y-72121198D01*
X238848655Y-72141568D01*
X238860809Y-72159730D01*
X238864124Y-72181365D01*
X238866051Y-72186321D01*
X238865385Y-72189593D01*
X238866500Y-72196863D01*
X238866500Y-72688626D01*
X238846815Y-72755665D01*
X238794011Y-72801420D01*
X238724853Y-72811364D01*
X238661297Y-72782339D01*
X238624569Y-72726945D01*
X238602547Y-72659168D01*
X238602545Y-72659165D01*
X238602545Y-72659163D01*
X238571423Y-72598083D01*
X238516760Y-72490801D01*
X238512168Y-72484481D01*
X238478435Y-72438050D01*
X238454955Y-72372244D01*
X238470781Y-72304190D01*
X238489877Y-72278695D01*
X238500582Y-72267691D01*
X238508656Y-72262712D01*
X238632712Y-72138656D01*
X238644118Y-72120162D01*
X238653624Y-72110393D01*
X238672657Y-72099658D01*
X238688907Y-72085042D01*
X238702494Y-72082830D01*
X238714482Y-72076070D01*
X238736297Y-72077329D01*
X238757870Y-72073819D01*
X238770495Y-72079304D01*
G37*
%TD.AperFunction*%
%TA.AperFunction,Conductor*%
G36*
X226534305Y-57474185D02*
G01*
X226554947Y-57490819D01*
X238830181Y-69766052D01*
X238863666Y-69827375D01*
X238866500Y-69853733D01*
X238866500Y-70043136D01*
X238846815Y-70110175D01*
X238794011Y-70155930D01*
X238724853Y-70165874D01*
X238661297Y-70136849D01*
X238636963Y-70108235D01*
X238632714Y-70101346D01*
X238508657Y-69977289D01*
X238508656Y-69977288D01*
X238359334Y-69885186D01*
X238192797Y-69830001D01*
X238192795Y-69830000D01*
X238090010Y-69819500D01*
X236889998Y-69819500D01*
X236889981Y-69819501D01*
X236787203Y-69830000D01*
X236787200Y-69830001D01*
X236620668Y-69885185D01*
X236620663Y-69885187D01*
X236471342Y-69977289D01*
X236396451Y-70052181D01*
X236335128Y-70085666D01*
X236308770Y-70088500D01*
X217644047Y-70088500D01*
X217577008Y-70068815D01*
X217556366Y-70052181D01*
X211756819Y-64252633D01*
X211723334Y-64191310D01*
X211720500Y-64164952D01*
X211720500Y-60657658D01*
X211740185Y-60590619D01*
X211792989Y-60544864D01*
X211862147Y-60534920D01*
X211917386Y-60557341D01*
X211986847Y-60607808D01*
X211986849Y-60607809D01*
X211986852Y-60607811D01*
X212063013Y-60646616D01*
X212155214Y-60693596D01*
X212155216Y-60693596D01*
X212155219Y-60693598D01*
X212251548Y-60724897D01*
X212334932Y-60751991D01*
X212521565Y-60781551D01*
X212521570Y-60781551D01*
X212710537Y-60781551D01*
X212897169Y-60751991D01*
X213076883Y-60693598D01*
X213245250Y-60607811D01*
X213398124Y-60496741D01*
X213531741Y-60363124D01*
X213642811Y-60210250D01*
X213728598Y-60041883D01*
X213786991Y-59862169D01*
X213816551Y-59675537D01*
X213816551Y-59486564D01*
X213786991Y-59299932D01*
X213728596Y-59120214D01*
X213670535Y-59006264D01*
X213657639Y-58937595D01*
X213683915Y-58872854D01*
X213741022Y-58832597D01*
X213810827Y-58829605D01*
X213837315Y-58839484D01*
X213951265Y-58897545D01*
X213951267Y-58897545D01*
X213951270Y-58897547D01*
X214047599Y-58928846D01*
X214130983Y-58955940D01*
X214317616Y-58985500D01*
X214317621Y-58985500D01*
X214506588Y-58985500D01*
X214693220Y-58955940D01*
X214705801Y-58951852D01*
X214872934Y-58897547D01*
X215041301Y-58811760D01*
X215194175Y-58700690D01*
X215327792Y-58567073D01*
X215438862Y-58414199D01*
X215524649Y-58245832D01*
X215583042Y-58066118D01*
X215612602Y-57879486D01*
X215612602Y-57690513D01*
X215597933Y-57597898D01*
X215606888Y-57528605D01*
X215651884Y-57475153D01*
X215718635Y-57454513D01*
X215720406Y-57454500D01*
X226467266Y-57454500D01*
X226534305Y-57474185D01*
G37*
%TD.AperFunction*%
%TD*%
M02*
